<svg width="4000" height="4000" viewBox="0 0 4000 4000" fill="none" xmlns="http://www.w3.org/2000/svg">
<rect width="4000" height="4000" rx="200" fill="#261536"/>
<path d="M1800 1400V1533.33H1666.67C1631.3 1533.33 1597.39 1547.38 1572.39 1572.39C1547.38 1597.39 1533.33 1631.3 1533.33 1666.67V1800H1400V1933.33H1533.33V2066.67H1400V2200H1533.33V2333.33C1533.33 2368.7 1547.38 2402.61 1572.39 2427.61C1597.39 2452.62 1631.3 2466.67 1666.67 2466.67H1800V2600H1933.33V2466.67H2066.67V2600H2200V2466.67H2333.33C2368.7 2466.67 2402.61 2452.62 2427.61 2427.61C2452.62 2402.61 2466.67 2368.7 2466.67 2333.33V2200H2600V2066.67H2466.67V1933.33H2600V1800H2466.67V1666.67C2466.67 1631.3 2452.62 1597.39 2427.61 1572.39C2402.61 1547.38 2368.7 1533.33 2333.33 1533.33H2200V1400H2066.67V1533.33H1933.33V1400M1733.33 1800H1966.67V1900H1766.67V1950H1900C1917.68 1950 1934.64 1957.02 1947.14 1969.53C1959.64 1982.03 1966.67 1998.99 1966.67 2016.67V2133.33C1966.67 2151.01 1959.64 2167.97 1947.14 2180.47C1934.64 2192.98 1917.68 2200 1900 2200H1733.33C1715.65 2200 1698.7 2192.98 1686.19 2180.47C1673.69 2167.97 1666.67 2151.01 1666.67 2133.33V1866.67C1666.67 1848.99 1673.69 1832.03 1686.19 1819.53C1698.7 1807.02 1715.65 1800 1733.33 1800ZM2033.33 1800H2133.33V1933.33H2233.33V1800H2333.33V2200H2233.33V2033.33H2033.33M1766.67 2050V2100H1866.67V2050" fill="#461C60"/>
<path d="M2151.69 378C1436.19 378 845.136 879.217 767.365 1542.59L518.499 1852.17C440.728 1970.1 425.174 2117.52 487.39 2235.45C549.607 2338.64 642.932 2412.35 751.811 2427.09V2589.25C751.811 2854.6 954.015 3090.47 1218.44 3164.18V3621.17H2929.39V2810.38C3318.25 2559.77 3551.56 2161.74 3551.56 1704.75C3551.56 967.667 2929.39 378 2151.69 378ZM2618.31 2633.47V3326.33H1529.52V2884.08H1373.98C1202.88 2884.08 1062.89 2751.41 1062.89 2589.25V2147H829.582C767.365 2147 720.703 2073.29 767.365 2029.07L1062.89 1660.53C1094 1115.08 1560.63 672.833 2151.69 672.833C2758.3 672.833 3240.48 1129.83 3240.48 1704.75C3240.48 2117.52 2991.61 2471.32 2618.31 2633.47Z" fill="#461C60"/>
</svg>
